<?xml version="1.0" encoding="UTF-8"?>
<svg id="Camada_2" data-name="Camada 2" xmlns="http://www.w3.org/2000/svg" viewBox="0 0 268.71 113.56">
  <defs>
    <style>
      .cls-1 {
        fill: #fff;
      }

      .cls-2 {
        fill: none;
        stroke: #c92127;
        stroke-miterlimit: 10;
        stroke-width: 2px;
      }

      .cls-3 {
        fill: #1f2771;
      }

      .cls-4 {
        font-family: TimesNewRomanPS-BoldMT, 'Times New Roman';
        font-size: 22px;
        font-weight: 700;
      }

      .cls-4, .cls-5 {
        fill: #c92127;
      }
    </style>
  </defs>
  <g id="Camada_1-2" data-name="Camada 1">
    <g>
      <g>
        <rect class="cls-3" width="268.71" height="75.77" rx="11" ry="11"/>
        <path class="cls-1" d="m58.74,16.55h7.6c-.99,2.42-2.09,6.03-3.3,10.83l-7.08,29.3h-5.04l-7.08-23.77-7.12,23.77h-5.13l-7.12-29.3c-1.19-5-2.3-8.61-3.34-10.83h7.69c-.15,1.08-.22,2.01-.22,2.79,0,2.22.38,4.9,1.13,8.04l4.73,19.5,9.25-30.63h.22l9.21,30.48,4.69-19.35c.75-3.23,1.13-5.9,1.13-7.99,0-.82-.07-1.76-.22-2.84Z"/>
        <path class="cls-5" d="m153.37,9.35h12.08v.21c-1.29,1.89-2.45,3.87-3.48,5.95-.91,1.98-1.94,4.68-3.08,8.08l-14.82,43.78h-6.56l-13.51-42.72c-2.51-7.75-4.69-12.78-6.56-15.09v-.21h12.08c-.3,1.42-.46,2.76-.46,4.04,0,3.02.74,6.9,2.22,11.62l9.69,30.68,9.86-29.19c2.01-5.86,3.02-10.32,3.02-13.39,0-1.42-.17-2.67-.51-3.76Z"/>
        <g>
          <path class="cls-1" d="m84.75,43.64l-12.76.36c.11,2.53.75,4.41,1.92,5.64,1.17,1.23,2.76,1.84,4.76,1.84,1.79,0,3.72-.73,5.8-2.2l.08.08-1.56,5c-1.57.75-3.33,1.12-5.28,1.12-3.39,0-6.01-.97-7.86-2.92-1.85-1.95-2.78-4.77-2.78-8.48s.94-6.63,2.82-8.78c1.88-2.15,4.26-3.22,7.14-3.22,2.53,0,4.47.79,5.82,2.38,1.35,1.59,2.02,3.81,2.02,6.66,0,1.04-.04,1.88-.12,2.52Zm-12.72-2.52h9c0-1.95-.38-3.43-1.14-4.44-.76-1.01-1.87-1.52-3.34-1.52-2.64,0-4.15,1.99-4.52,5.96Z"/>
          <path class="cls-1" d="m86.43,54.64l.28-6.32h.12c.91,1.52,1.74,2.58,2.5,3.18.76.6,1.67.9,2.74.9,2.03,0,3.04-.93,3.04-2.8,0-.83-.25-1.53-.76-2.12-.53-.67-1.51-1.44-2.92-2.32-1.57-1.01-2.68-2.03-3.32-3.04-.64-1.01-.96-2.2-.96-3.56,0-1.87.69-3.41,2.08-4.64,1.39-1.23,3.19-1.84,5.4-1.84,1.52,0,3,.23,4.44.68v4.32h-.12c-1.57-1.31-3.03-1.96-4.36-1.96-.91,0-1.61.22-2.1.66-.49.44-.74,1.05-.74,1.82,0,.83.26,1.55.78,2.18.52.63,1.43,1.34,2.74,2.14,1.63.99,2.79,1.99,3.48,3.02.69,1.03,1.04,2.25,1.04,3.66,0,2.13-.69,3.81-2.08,5.04s-3.2,1.84-5.44,1.84c-1.84,0-3.79-.28-5.84-.84Z"/>
          <path class="cls-1" d="m108.03,27.52v4.92h6.28v3h-6.28v13.56c0,1.01.23,1.74.7,2.18.47.44,1.19.66,2.18.66,1.12,0,2.43-.23,3.92-.68l.08.08-2.76,3.84c-1.23.24-2.29.36-3.2.36-1.92,0-3.31-.41-4.18-1.24-.87-.83-1.3-2.19-1.3-4.08v-14.68h-2.92v-.16l7.32-7.76h.16Z"/>
        </g>
        <g>
          <path class="cls-1" d="m167.72,38.64v10.36c0,2.29.37,4.36,1.12,6.2h-6.76c.72-1.87,1.08-3.93,1.08-6.2v-10.36c0-2.27-.36-4.33-1.08-6.2h6.76c-.75,1.84-1.12,3.91-1.12,6.2Zm0-14.7c.61.63.92,1.38.92,2.26s-.31,1.63-.92,2.26c-.61.63-1.36.94-2.24.94s-1.67-.31-2.3-.94c-.63-.63-.94-1.38-.94-2.26s.31-1.63.94-2.26c.63-.63,1.39-.94,2.3-.94s1.63.31,2.24.94Z"/>
          <path class="cls-1" d="m172.44,49v-18.08c0-3.09-.36-5.53-1.08-7.32l6.6-1.28c-.64,2.51-.96,6.07-.96,10.68v16c0,2.29.37,4.36,1.12,6.2h-6.76c.72-1.87,1.08-3.93,1.08-6.2Z"/>
          <path class="cls-1" d="m181.64,49v-18.08c0-3.09-.36-5.53-1.08-7.32l6.6-1.28c-.64,2.51-.96,6.07-.96,10.68v16c0,2.29.37,4.36,1.12,6.2h-6.76c.72-1.87,1.08-3.93,1.08-6.2Z"/>
          <path class="cls-1" d="m204.28,39.2v9.8c0,2.29.41,4.36,1.24,6.2h-5.8v-2.56c-1.28.75-2.55,1.63-3.8,2.64-.13.03-.43.04-.88.04-2.13,0-3.79-.51-4.96-1.52-1.17-1.01-1.76-2.4-1.76-4.16,0-1.25.39-2.35,1.18-3.3.79-.95,2.15-1.87,4.1-2.78,1.01-.51,3.05-1.4,6.12-2.68v-.92c0-1.33-.38-2.37-1.14-3.12-.76-.75-1.79-1.12-3.1-1.12-1.71,0-3.37.52-5,1.56l-.08-.08,1.6-4.4c1.47-.48,3.04-.72,4.72-.72,2.48,0,4.36.61,5.64,1.82,1.28,1.21,1.92,2.98,1.92,5.3Zm-4.56,5.84h-5.76c-.51.91-.76,1.89-.76,2.96,0,2.37,1.67,3.56,5,3.56.56,0,1.07-.05,1.52-.16v-6.36Z"/>
          <path class="cls-1" d="m226.44,32.04v4.56c-1.41-.21-2.76-.53-4.04-.96,1.12,1.36,1.68,2.81,1.68,4.36,0,2.16-.81,3.93-2.44,5.3-1.63,1.37-3.73,2.06-6.32,2.06-.8,0-1.56-.04-2.28-.12-.72.72-1.08,1.39-1.08,2,0,.88.72,1.32,2.16,1.32l3.92-.04c.53-.03,1.68-.04,3.44-.04,1.12.21,2.15.8,3.08,1.76.93.93,1.4,1.99,1.4,3.16,0,1.73-.96,3.41-2.88,5.04-2.4,2-5.27,3-8.6,3-2.43,0-4.32-.44-5.68-1.32s-2.04-2.08-2.04-3.6c0-.45.08-.88.24-1.28,1.84-1.12,3.28-2.2,4.32-3.24-1.28-.08-2.27-.34-2.96-.78-.69-.44-1.04-1.02-1.04-1.74,0-.91.49-1.69,1.48-2.36l3.24-2.2c-3.41-1.65-5.12-3.83-5.12-6.52,0-2.35.82-4.32,2.46-5.92,1.64-1.6,3.74-2.4,6.3-2.4,1.81,0,3.37.39,4.68,1.16,2.29-.16,4.32-.56,6.08-1.2Zm-8.6,21.92l-2.92.04c-.4.03-1.17.04-2.32.04-.8.93-1.2,1.84-1.2,2.72,0,2.11,1.52,3.16,4.56,3.16,1.68,0,3.2-.24,4.56-.72.59-.77.88-1.68.88-2.72,0-1.68-1.19-2.52-3.56-2.52Zm1.72-13.24c0-1.71-.43-3.13-1.28-4.28-.85-1.15-1.96-1.72-3.32-1.72-1.07,0-1.92.43-2.56,1.3-.64.87-.96,1.99-.96,3.38,0,1.68.43,3.03,1.28,4.04.85,1.01,1.99,1.52,3.4,1.52,1.07,0,1.91-.37,2.52-1.12.61-.75.92-1.79.92-3.12Z"/>
          <path class="cls-1" d="m244.31,43.64l-12.76.36c.11,2.53.75,4.41,1.92,5.64,1.17,1.23,2.76,1.84,4.76,1.84,1.79,0,3.72-.73,5.8-2.2l.08.08-1.56,5c-1.57.75-3.33,1.12-5.28,1.12-3.39,0-6.01-.97-7.86-2.92-1.85-1.95-2.78-4.77-2.78-8.48s.94-6.63,2.82-8.78c1.88-2.15,4.26-3.22,7.14-3.22,2.53,0,4.47.79,5.82,2.38,1.35,1.59,2.02,3.81,2.02,6.66,0,1.04-.04,1.88-.12,2.52Zm-12.72-2.52h9c0-1.95-.38-3.43-1.14-4.44-.76-1.01-1.87-1.52-3.34-1.52-2.64,0-4.15,1.99-4.52,5.96Z"/>
        </g>
      </g>
      <g>
        <text class="cls-4" transform="translate(153.53 103.23)"><tspan x="0" y="0">Residence</tspan></text>
        <line class="cls-2" x1="162.58" y1="112.56" x2="241.06" y2="112.56"/>
      </g>
    </g>
  </g>
</svg>